<svg width="17" height="15" viewBox="0 0 17 15" fill="none" xmlns="http://www.w3.org/2000/svg">
<path d="M0.600085 6.85883C2.28343 5.93159 4.16251 5.15771 5.91823 4.37987C8.93876 3.10583 11.9713 1.85387 15.0344 0.688307C15.6304 0.489707 16.7012 0.295487 16.8062 1.17869C16.7487 2.42885 16.5122 3.67169 16.35 4.91453C15.9382 7.64765 15.4623 10.3714 14.9982 13.0955C14.8383 14.0029 13.7016 14.4726 12.9742 13.892C11.2263 12.7113 9.46495 11.5421 7.73935 10.3341C7.17409 9.75971 7.69825 8.93489 8.20309 8.52473C9.64273 7.10597 11.1695 5.90057 12.5339 4.40849C12.9019 3.51971 11.8145 4.26875 11.4558 4.49825C9.48493 5.85641 7.56229 7.29749 5.48437 8.49113C4.42297 9.07541 3.18589 8.57609 2.12497 8.25005C1.17372 7.85621 -0.220212 7.45943 0.599989 6.85889L0.600085 6.85883Z" fill="white" fill-opacity="0.8"/>
</svg>
